<?xml version="1.0" encoding="UTF-8"?>
<svg xmlns="http://www.w3.org/2000/svg" xmlns:xlink="http://www.w3.org/1999/xlink" width="134pt" height="100pt" viewBox="0 0 134 100" version="1.1">
<g id="surface1">
<path style=" stroke:none;fill-rule:nonzero;fill:rgb(0%,0%,0%);fill-opacity:1;" d="M 123.765625 0 L 0 0 L 0 73.875 L 11.144531 73.875 L 11.144531 100.074219 L 37.222656 73.917969 L 123.765625 73.917969 C 130.210938 73.917969 134.0625 70.058594 134.0625 63.59375 L 134.0625 10.324219 C 134.0625 3.859375 130.210938 0 123.765625 0 "/>
<path style=" stroke:none;fill-rule:nonzero;fill:rgb(30.196078%,77.254902%,88.235294%);fill-opacity:1;" d="M 29.257812 35.203125 C 32.050781 34.203125 33.648438 32.066406 33.648438 27.859375 L 33.648438 21.179688 C 33.648438 15.105469 30.386719 12.101562 23.730469 12.101562 L 11.214844 12.101562 L 11.214844 60.179688 L 23.863281 60.179688 C 30.523438 60.179688 33.851562 57.175781 33.851562 51.03125 L 33.851562 41.480469 C 33.851562 37.941406 32.453125 36.007812 29.257812 35.203125 Z M 20.003906 19.910156 L 22.933594 19.910156 C 24.195312 19.910156 24.796875 20.511719 24.796875 21.78125 L 24.796875 30.0625 C 24.796875 31.332031 24.195312 31.933594 22.933594 31.933594 L 20.003906 31.933594 Z M 24.929688 50.496094 C 24.929688 51.765625 24.332031 52.367188 23.066406 52.367188 L 20.003906 52.367188 L 20.003906 39.347656 L 23.066406 39.347656 C 24.332031 39.347656 24.929688 39.945312 24.929688 41.214844 L 24.929688 50.496094 "/>
<path style=" stroke:none;fill-rule:nonzero;fill:rgb(30.196078%,77.254902%,88.235294%);fill-opacity:1;" d="M 45.765625 24.1875 L 45.765625 20.113281 L 37.3125 20.113281 L 37.3125 60.179688 L 46.097656 60.179688 L 46.097656 31.332031 C 47.429688 30.128906 49.292969 29.328125 52.355469 29.328125 L 52.355469 19.777344 C 48.894531 19.578125 47.363281 21.316406 45.765625 24.1875 "/>
<path style=" stroke:none;fill-rule:nonzero;fill:rgb(30.196078%,77.254902%,88.235294%);fill-opacity:1;" d="M 66.335938 19.578125 L 64.207031 19.578125 C 57.949219 19.578125 54.886719 22.382812 54.886719 28.125 L 54.886719 33.601562 L 63.007812 33.601562 L 63.007812 28.460938 C 63.007812 27.523438 63.40625 27.125 64.339844 27.125 L 65.671875 27.125 C 66.605469 27.125 67.003906 27.523438 67.003906 28.460938 L 67.003906 35.003906 L 59.082031 38.410156 C 55.753906 39.8125 54.355469 41.816406 54.355469 45.957031 L 54.355469 53.96875 C 54.355469 58.378906 56.75 60.582031 60.480469 60.582031 L 60.613281 60.582031 C 63.40625 60.582031 65.804688 59.042969 67.203125 57.242188 L 67.203125 60.179688 L 75.65625 60.179688 L 75.65625 28.125 C 75.65625 22.382812 72.59375 19.578125 66.335938 19.578125 Z M 67.003906 52.300781 C 66.269531 52.699219 65.605469 52.96875 64.738281 52.96875 C 63.339844 52.96875 62.742188 52.433594 62.742188 51.03125 L 62.742188 46.625 C 62.742188 45.089844 63.007812 44.355469 64.339844 43.6875 L 67.003906 42.285156 L 67.003906 52.300781 "/>
<path style=" stroke:none;fill-rule:nonzero;fill:rgb(30.196078%,77.254902%,88.235294%);fill-opacity:1;" d="M 114.601562 19.578125 L 112.207031 19.578125 C 105.75 19.578125 102.484375 22.515625 102.484375 28.527344 L 102.484375 51.765625 C 102.484375 57.777344 105.75 60.714844 112.207031 60.714844 L 114.601562 60.714844 C 121.058594 60.714844 124.320312 57.777344 124.320312 51.765625 L 124.320312 28.527344 C 124.320312 22.515625 121.058594 19.578125 114.601562 19.578125 Z M 115.535156 51.363281 C 115.535156 52.367188 115.066406 52.835938 114.070312 52.835938 L 112.738281 52.835938 C 111.738281 52.835938 111.273438 52.367188 111.273438 51.363281 L 111.273438 28.925781 C 111.273438 27.925781 111.738281 27.457031 112.738281 27.457031 L 114.070312 27.457031 C 115.066406 27.457031 115.535156 27.925781 115.535156 28.925781 L 115.535156 51.363281 "/>
<path style=" stroke:none;fill-rule:nonzero;fill:rgb(30.196078%,77.254902%,88.235294%);fill-opacity:1;" d="M 89.371094 47.359375 L 86.109375 20.113281 L 77.390625 20.113281 L 83.445312 60.179688 L 94.761719 60.179688 L 100.820312 20.113281 L 92.632812 20.113281 L 89.371094 47.359375 "/>
</g>
</svg>
